<svg xmlns="http://www.w3.org/2000/svg" xml:space="preserve" viewBox="0 0 50 50">
  <path fill="#FFF" d="M42.7 7.3C37.8 2.4 31.4 0 25 0S12.2 2.4 7.3 7.3c-9.8 9.8-9.8 25.6 0 35.4C12.2 47.6 18.6 50 25 50s12.8-2.4 17.7-7.3c9.8-9.8 9.8-25.6 0-35.4M40 40c-4 4-9.3 6.2-15 6.2S14 44 10 40s-6.2-9.3-6.2-15S6 14 10 10s9.3-6.2 15-6.2S36 6 40 10s6.2 9.3 6.2 15S44 36 40 40m-7.4-19.7-4.9 4.9 4.9 4.9c.7.7.7 1.9 0 2.7-.7.8-.8.5-1.3.5s-1-.2-1.3-.5l-4.9-4.9-4.9 4.9c-.4.4-.8.5-1.3.5s-1-.2-1.3-.5c-.7-.7-.7-1.9 0-2.7l4.9-4.9-4.9-4.9c-.7-.7-.7-1.9 0-2.7.7-.7 1.9-.7 2.7 0l4.9 4.9 4.9-4.9c.7-.7 1.9-.7 2.7 0 .7.7.7 1.9 0 2.7h-.2z"/>
</svg>