<svg xmlns="http://www.w3.org/2000/svg" data-name="Layer 1" viewBox="0 0 41 41"><path fill="#fff" d="M20.5 0C9.2 0 0 9.2 0 20.5S9.2 41 20.5 41 41 31.8 41 20.5 31.8 0 20.5 0m0 37.2c-9.2 0-16.7-7.5-16.7-16.7S11.3 3.8 20.5 3.8s16.7 7.5 16.7 16.7-7.5 16.7-16.7 16.7m-2.6-24.4c0-1.4 1.1-2.6 2.6-2.6s2.6 1.1 2.6 2.6-1.1 2.6-2.6 2.6-2.6-1.1-2.6-2.6m7.7 16.7c0 .7-.6 1.3-1.3 1.3h-7.7c-.7 0-1.3-.6-1.3-1.3s.6-1.3 1.3-1.3h1.3v-7.7h-1.3c-.7 0-1.3-.6-1.3-1.3s.6-1.3 1.3-1.3h5.1c.7 0 1.3.6 1.3 1.3v9h1.3c.7 0 1.3.6 1.3 1.3"/></svg>