<?xml version="1.0" encoding="UTF-8"?>
<svg id="Layer_1" xmlns="http://www.w3.org/2000/svg" version="1.1" viewBox="0 0 512 512">
  <!-- Generator: Adobe Illustrator 29.1.0, SVG Export Plug-In . SVG Version: 2.1.0 Build 142)  -->
  <defs>
    <style>
      .st0 {
        fill: #e3ff24;
      }
    </style>
  </defs>
  <path class="st0" d="M256,0C114.8,0,0,114.8,0,256s114.8,256,256,256,256-114.8,256-256S397.2,0,256,0ZM335.1,271.1l-106.7,106.7c-4.2,4.2-9.6,6.3-15.1,6.3s-10.9-2.1-15.1-6.3c-8.3-8.3-8.3-21.8,0-30.2l91.6-91.6-91.6-91.6c-8.3-8.3-8.3-21.8,0-30.2s21.8-8.3,30.2,0l106.7,106.7c8.3,8.3,8.3,21.8,0,30.2Z"/>
</svg>