<?xml version="1.0" encoding="UTF-8"?>
<svg id="Layer_1" xmlns="http://www.w3.org/2000/svg" version="1.1" viewBox="0 0 512 512">
  <!-- Generator: Adobe Illustrator 29.1.0, SVG Export Plug-In . SVG Version: 2.1.0 Build 142)  -->
  <defs>
    <style>
      .st0 {
        fill: #e3ff24;
      }
    </style>
  </defs>
  <path class="st0" d="M256,0C114.6,0,0,114.6,0,256s114.6,256,256,256,256-114.6,256-256S397.4,0,256,0ZM366,325.3l-40.8,40.7s-64.5-69.2-69.3-69.2-69.3,69.2-69.3,69.2l-40.8-40.7s69.3-63.6,69.3-69.2-69.3-69.3-69.3-69.3l40.8-40.8s65.1,69.2,69.3,69.2,69.3-69.2,69.3-69.2l40.8,40.8s-69.3,64.5-69.3,69.3,69.3,69.2,69.3,69.2h0Z"/>
</svg>