<?xml version="1.0" encoding="UTF-8"?>
<svg id="Layer_1" xmlns="http://www.w3.org/2000/svg" version="1.1" viewBox="0 0 509.4 184.5">
  <!-- Generator: Adobe Illustrator 29.1.0, SVG Export Plug-In . SVG Version: 2.1.0 Build 142)  -->
  <defs>
    <style>
      .st0 {
        fill: #a664ff;
      }
    </style>
  </defs>
  <path class="st0" d="M508.9,95.3c0-.1,0-.2.1-.4,0-.2,0-.4.1-.6,0-.1,0-.2,0-.3,0-.3.1-.6.1-.9,0,0,0,0,0,0,0-.3,0-.6,0-.9,0,0,0-.2,0-.2,0-.2,0-.5,0-.7,0,0,0-.2,0-.3,0-.2,0-.5-.1-.7,0-.2,0-.3,0-.5,0-.2,0-.4-.1-.5,0-.2-.1-.4-.2-.5,0,0,0-.2,0-.2-.5-1.4-1.3-2.7-2.4-3.8-.1-.1-.2-.2-.3-.3L424.6,3.1c-4.1-4.1-10.8-4.1-14.9,0s-4.1,10.8,0,14.9l63.7,63.7H10.5c-5.8,0-10.5,4.7-10.5,10.5s4.7,10.5,10.5,10.5h463l-63.8,63.8c-4.1,4.1-4.1,10.8,0,14.9,2,2.1,4.7,3.1,7.4,3.1h0c2.7,0,5.4-1,7.5-3.1l81.8-81.8s0,0,.1-.1c0,0,0-.1.2-.2.3-.3.5-.6.7-.8,0,0,.1-.2.2-.3.1-.2.2-.3.3-.5,0-.1.1-.2.2-.3,0-.2.2-.3.3-.5.1-.2.2-.5.3-.7,0,0,0,0,0,0,0-.1,0-.2.1-.4,0-.2.1-.3.2-.5Z"/>
</svg>