<?xml version="1.0" encoding="iso-8859-1"?>
<!-- Generator: Adobe Illustrator 26.3.1, SVG Export Plug-In . SVG Version: 6.00 Build 0)  -->
<svg version="1.1" id="Layer_1" xmlns="http://www.w3.org/2000/svg" xmlns:xlink="http://www.w3.org/1999/xlink" x="0px" y="0px"
	 width="1921.817px" height="352.835px" viewBox="0 0 1921.817 352.835" enable-background="new 0 0 1921.817 352.835"
	 xml:space="preserve">
<path fill="#FFFFFF" d="M1921.817,352.835c0,0-0.421-281.484-0.17-282.807c-46.823-2.323-88.839-23.189-112.015-34.705
	C1784.852,22.979,1738.724,0,1687.505,0c-16.109,0-31.695,2.261-46.266,5.745c-32.023,7.611-59.166,21.152-76.203,29.652
	c-16.862,8.378-43.699,21.71-75.115,29.247c-14.262,3.401-29.461,5.605-45.097,5.605c-50.212,0-95.92-22.72-120.476-34.927
	C1299.569,22.979,1253.44,0,1202.22,0v0.077c-0.102,0-0.203-0.004-0.306-0.004c-51.362,0-97.419,22.979-122.161,35.324
	c-24.564,12.204-70.294,34.925-120.517,34.925c-50.189,0-95.912-22.72-120.476-34.927C813.98,23.052,767.851,0.073,716.63,0.073
	c-51.364,0-97.421,22.979-122.163,35.324c-24.564,12.204-70.294,34.925-120.518,34.925c-50.185,0-95.912-22.72-120.476-34.927
	c-24.78-12.344-70.909-35.322-122.127-35.322c-51.364,0-97.421,22.979-122.163,35.324C86.483,46.676,45.7,66.922,0.004,69.93
	c0.12,0.67,0.194,1.365,0.194,2.094C0.198,72.588,0,352.834,0,352.834L1921.817,352.835z"/>
<path d="M1921.416,121.795c0.111,0.006,0.223,0.016,0.334,0.021c-0.145-1.33-0.355-50.466-0.103-51.789
	c-46.823-2.323-88.839-23.189-112.015-34.705C1784.852,22.979,1738.724,0,1687.505,0c-16.109,0-31.695,2.261-46.266,5.745
	c-32.023,7.611-59.166,21.152-76.203,29.652c-16.862,8.378-43.699,21.71-75.115,29.247c-14.262,3.401-29.461,5.605-45.097,5.605
	c-50.212,0-95.92-22.72-120.476-34.927C1299.569,22.979,1253.44,0,1202.22,0v0.077c-0.102,0-0.203-0.004-0.306-0.004
	c-51.362,0-97.419,22.979-122.161,35.324c-24.564,12.204-70.294,34.925-120.517,34.925c-50.189,0-95.912-22.72-120.476-34.927
	C813.98,23.052,767.851,0.073,716.63,0.073c-51.364,0-97.421,22.979-122.163,35.324c-24.564,12.204-70.294,34.925-120.518,34.925
	c-50.185,0-95.912-22.72-120.476-34.927c-24.78-12.344-70.909-35.322-122.127-35.322c-51.364,0-97.421,22.979-122.163,35.324
	C86.483,46.676,45.7,66.922,0.004,69.93c0.12,0.67,0.194,1.365,0.194,2.094c0,0.564-0.059,37.645-0.157,46.784
	c-0.013,0.001-0.025,0.002-0.037,0.003c0.015,0.082,0.021,0.168,0.035,0.25c-0.012,1.065-0.025,1.694-0.038,1.764
	c0.064-0.004,0.129-0.011,0.193-0.016c0,0.032,0.005,0.063,0.005,0.095c0,0.638-0.075,1.285-0.198,1.929
	c46.546-2.997,87.875-23.515,110.871-34.94c24.465-12.207,69.999-34.927,120.476-34.927c50.331,0,95.94,22.72,120.444,34.926
	c24.844,12.346,71.09,35.323,122.159,35.323c51.11,0,97.357-22.978,122.205-35.323c24.465-12.207,69.999-34.927,120.476-34.927
	c50.333,0,95.943,22.72,120.446,34.926c24.844,12.346,71.083,35.323,122.159,35.323c51.11,0,97.357-22.978,122.205-35.323
	c24.465-12.207,69.999-34.927,120.474-34.927c50.333,0,95.943,22.72,120.446,34.926c24.844,12.346,71.083,35.323,122.159,35.323
	c16.029,0,31.578-2.261,46.141-5.744c32.003-7.61,59.26-21.151,76.37-29.651c16.794-8.38,43.517-21.712,74.95-29.249
	c14.27-3.401,29.505-5.605,45.22-5.605v-0.069c0.102,0,0.203-0.004,0.306-0.004c50.331,0,95.941,22.72,120.444,34.926
	c23.438,11.647,65.926,32.747,113.538,35.099C1921.446,122.547,1921.425,122.171,1921.416,121.795z"/>
</svg>
