<?xml version="1.0" encoding="iso-8859-1"?>
<!-- Generator: Adobe Illustrator 26.3.1, SVG Export Plug-In . SVG Version: 6.00 Build 0)  -->
<svg version="1.1" id="Layer_1" xmlns="http://www.w3.org/2000/svg" xmlns:xlink="http://www.w3.org/1999/xlink" x="0px" y="0px"
	 width="1921.817px" height="352.835px" viewBox="0 0 1921.817 352.835" enable-background="new 0 0 1921.817 352.835"
	 xml:space="preserve">
<path fill="#FFFFFF" d="M1921.817,0c0,0-0.421,281.484-0.17,282.807c-46.823,2.323-88.839,23.189-112.015,34.705
	c-24.78,12.344-70.908,35.322-122.127,35.322c-16.109,0-31.695-2.261-46.266-5.745c-32.023-7.611-59.166-21.152-76.203-29.652
	c-16.862-8.378-43.699-21.71-75.115-29.247c-14.262-3.401-29.461-5.605-45.097-5.605c-50.212,0-95.92,22.72-120.476,34.927
	c-24.78,12.344-70.908,35.322-122.129,35.322v-0.077c-0.102,0-0.203,0.004-0.306,0.004c-51.362,0-97.419-22.979-122.161-35.324
	c-24.564-12.204-70.294-34.925-120.517-34.925c-50.189,0-95.912,22.72-120.476,34.927c-24.78,12.344-70.909,35.322-122.129,35.322
	c-51.364,0-97.421-22.979-122.163-35.324c-24.564-12.204-70.294-34.925-120.518-34.925c-50.185,0-95.912,22.72-120.476,34.927
	c-24.78,12.344-70.909,35.322-122.127,35.322c-51.364,0-97.421-22.979-122.163-35.324C86.483,306.159,45.7,285.913,0.004,282.905
	c0.12-0.67,0.194-1.365,0.194-2.094C0.198,280.247,0,0.001,0,0.001L1921.817,0z"/>
<g>
</g>
<g>
</g>
<g>
</g>
<g>
</g>
<g>
</g>
<g>
</g>
<g>
</g>
<g>
</g>
<g>
</g>
<g>
</g>
<g>
</g>
<g>
</g>
<g>
</g>
<g>
</g>
<g>
</g>
</svg>
