<?xml version="1.0" encoding="iso-8859-1"?>
<!-- Generator: Adobe Illustrator 26.3.1, SVG Export Plug-In . SVG Version: 6.00 Build 0)  -->
<svg version="1.1" id="Layer_1" xmlns="http://www.w3.org/2000/svg" xmlns:xlink="http://www.w3.org/1999/xlink" x="0px" y="0px"
	 width="1897.468px" height="1810.275px" viewBox="0 0 1897.468 1810.275" enable-background="new 0 0 1897.468 1810.275"
	 xml:space="preserve">
<path id="YellowStar" fill="#FFBB3D" d="M1589.072,471.229c0,0,1.271-1.801,2.542-3.601c1.257-1.829,2.509-3.653,2.509-3.653
	c1.257-1.881,0.525-2.845-1.602-2.146c0,0-2.093,0.69-4.191,1.385c-2.083,0.709-4.168,1.413-4.168,1.413
	c-0.704,0.245-1.484,0.302-2.268,0.222c-1.569-0.161-3.137-0.922-4.054-2.098l-5.401-6.89c-1.347-1.734-2.41-1.356-2.343,0.851
	c0,0,0.066,2.188,0.137,4.381c0.08,2.192,0.165,4.385,0.165,4.385c0.09,2.221-1.559,4.655-3.639,5.425l-8.246,3.029
	c-2.083,0.761-2.042,1.886,0.099,2.495l4.811,1.319l1.276,0.354l2.216,0.61c1.04,0.284,1.99,0.992,2.675,1.895
	c0.666,0.902,1.044,1.994,1.011,3.053c0,0-0.019,0.52-0.052,1.299c-0.019,0.392-0.024,0.846-0.061,1.328
	c-0.043,0.478-0.085,0.988-0.132,1.498c-0.184,2.032-0.402,3.998-0.402,3.998c-0.34,1.947,0.6,2.216,2.103,0.629
	c0,0,1.479-1.578,2.93-3.209c1.465-1.63,2.835-3.308,2.835-3.308c0.643-0.775,1.583-1.375,2.608-1.72
	c1.229-0.411,2.556-0.458,3.648-0.024c0,0,1.999,0.784,4.049,1.654c1.966,0.912,3.993,1.947,3.993,1.947
	c2.051,1.049,2.85,0.284,1.711-1.824c0,0-0.279-0.515-0.699-1.29c-0.208-0.388-0.453-0.836-0.718-1.323
	c-0.284-0.458-0.586-0.955-0.888-1.446c-0.61-0.983-1.215-1.966-1.673-2.703c-0.222-0.374-0.435-0.652-0.567-0.865
	c-0.142-0.208-0.222-0.326-0.222-0.326c-0.728-1.068-1.03-2.491-0.936-3.866c0.066-0.94,0.302-1.824,0.747-2.57
	C1588.935,471.432,1589.001,471.328,1589.072,471.229z"/>
<path id="PurpleStar" fill="#5055CC" d="M417.681,338.671c0,0,1.883-2.667,3.765-5.333c1.862-2.709,3.717-5.41,3.717-5.41
	c1.862-2.786,0.777-4.213-2.373-3.178c0,0-3.1,1.022-6.208,2.051c-3.086,1.05-6.173,2.093-6.173,2.093
	c-1.043,0.363-2.197,0.448-3.36,0.329c-2.323-0.238-4.647-1.365-6.004-3.107l-8-10.205c-1.995-2.569-3.569-2.008-3.471,1.26
	c0,0,0.097,3.241,0.203,6.488c0.119,3.247,0.245,6.494,0.245,6.494c0.133,3.29-2.31,6.894-5.389,8.035l-12.213,4.486
	c-3.086,1.127-3.024,2.793,0.147,3.695l7.125,1.953l1.889,0.525l3.282,0.903c1.54,0.42,2.947,1.47,3.962,2.806
	c0.987,1.337,1.547,2.953,1.498,4.521c0,0-0.028,0.77-0.077,1.924c-0.028,0.581-0.035,1.253-0.091,1.967
	c-0.063,0.707-0.126,1.463-0.196,2.219c-0.273,3.009-0.595,5.921-0.595,5.921c-0.504,2.883,0.889,3.282,3.114,0.931
	c0,0,2.191-2.338,4.339-4.752c2.169-2.414,4.2-4.899,4.2-4.899c0.952-1.148,2.344-2.037,3.863-2.548
	c1.82-0.608,3.786-0.679,5.403-0.035c0,0,2.961,1.162,5.998,2.45c2.912,1.351,5.914,2.884,5.914,2.884
	c3.038,1.554,4.22,0.42,2.533-2.702c0,0-0.413-0.763-1.036-1.911c-0.308-0.574-0.672-1.238-1.063-1.959
	c-0.42-0.679-0.868-1.414-1.316-2.141c-0.903-1.456-1.799-2.912-2.478-4.003c-0.329-0.553-0.644-0.966-0.84-1.281
	c-0.21-0.308-0.329-0.483-0.329-0.483c-1.078-1.582-1.526-3.689-1.386-5.725c0.098-1.392,0.448-2.701,1.106-3.807
	C417.478,338.972,417.576,338.818,417.681,338.671z"/>
<circle id="PinkCircle" fill="#DF3583" cx="889.44" cy="594.174" r="92.147"/>
<circle id="RedCircle" fill="#DE2E07" cx="1552.413" cy="717.018" r="148.624"/>
<circle id="YellowCircle2" fill="#FFA00D" cx="1835.193" cy="1449.798" r="58.954"/>
<circle id="YellowCircle1" fill="#FFA00D" cx="78.174" cy="888.945" r="75.798"/>
<circle id="TealCircle" fill="#1ACBC8" cx="270.257" cy="777.394" r="27.661"/>
<circle id="PurpleCircle2" fill="#5055CC" cx="115.876" cy="1705.161" r="104.317"/>
<circle id="PurpleCircle1" fill="#5055CC" cx="1582.688" cy="68.468" r="66.936"/>
<g>
	<path fill="#FAE9DE" d="M1649.059,1599.989c-1.901,1.746-1.359,2.933,1.204,2.641l10.133-1.157
		c2.559-0.292,5.535,1.389,6.606,3.733l4.232,9.281c1.067,2.348,2.366,2.198,2.878-0.327l1.174-5.772l0.31-1.531l0.55-2.693
		c0.512-2.529,3.032-4.838,5.596-5.126l10.133-1.157c2.559-0.292,2.821-1.574,0.576-2.843l-8.881-5.019
		c-1.028-0.585-1.879-1.552-2.456-2.675c-0.68-1.325-0.968-2.865-0.688-4.232l2.03-9.996c0.516-2.524-0.619-3.17-2.524-1.423
		l-7.518,6.89c-1.067,0.976-2.606,1.531-4.146,1.6l-0.004,0.004c-1.049,0.043-2.107-0.133-3.015-0.551
		c-0.129-0.06-0.254-0.125-0.374-0.194l-8.877-5.019c-2.245-1.273-3.208-0.387-2.138,1.957l4.232,9.282
		c0.352,0.778,0.516,1.673,0.503,2.576c-0.022,1.819-0.748,3.699-2.017,4.86L1649.059,1599.989z"/>
</g>
<g>
</g>
<g>
</g>
<g>
</g>
<g>
</g>
<g>
</g>
<g>
</g>
<g>
</g>
<g>
</g>
<g>
</g>
<g>
</g>
<g>
</g>
<g>
</g>
<g>
</g>
<g>
</g>
<g>
</g>
</svg>
