<?xml version="1.0" encoding="iso-8859-1"?>
<!-- Generator: Adobe Illustrator 26.3.1, SVG Export Plug-In . SVG Version: 6.00 Build 0)  -->
<svg version="1.1" id="Layer_1" xmlns="http://www.w3.org/2000/svg" xmlns:xlink="http://www.w3.org/1999/xlink" x="0px" y="0px"
	 width="602.353px" height="530px" viewBox="0 0 602.353 530" enable-background="new 0 0 602.353 530" xml:space="preserve">
<circle fill="#1ACBC8" cx="134.037" cy="176.743" r="17.825"/>
<circle fill="#DF3583" cx="49.279" cy="301.486" r="47.758"/>
<circle fill="#5055CC" cx="251.769" cy="265.393" r="34.744"/>
<circle fill="#DE2E07" cx="474.956" cy="57.497" r="56.026"/>
<g>
	<path fill="#FFBB3D" d="M170.835,420.186c0.03-0.277,0.048-0.438,0.048-0.438c0.247-2.565,2.768-4.993,5.3-5.589
		c0,0,0.621-0.155,1.554-0.388c0.94-0.251,2.18-0.603,3.406-0.979c2.455-0.739,4.828-1.604,4.828-1.604
		c1.205-0.454,1.867-0.928,2.001-1.33c0.128-0.406-0.28-0.728-1.309-0.919c0,0-0.075-0.015-0.203-0.042
		c-0.131-0.018-0.313-0.069-0.531-0.131c-0.447-0.125-1.041-0.292-1.635-0.459c-0.301-0.093-0.603-0.182-0.886-0.268
		c-0.28-0.104-0.546-0.203-0.773-0.286c-0.453-0.173-0.754-0.286-0.754-0.286l-1.3-0.51c0,0-0.146-0.057-0.358-0.155
		c-0.215-0.098-0.501-0.23-0.787-0.361c-0.576-0.272-1.151-0.54-1.151-0.54c-0.546-0.247-1.029-0.632-1.434-1.106
		c-0.406-0.471-0.743-1.008-0.987-1.596c-0.48-1.22-0.603-2.544-0.242-3.793c0,0,0.179-0.606,0.444-1.518
		c0.271-0.889,0.617-2.162,0.972-3.394c0.361-1.223,0.683-2.547,0.939-3.496c0.257-0.954,0.412-1.625,0.412-1.625
		c0.635-2.687-0.531-3.51-2.55-1.763c0,0-2.013,1.694-4.026,3.388c-1.011,0.835-2.019,1.673-2.78,2.3
		c-0.76,0.62-1.267,1.032-1.267,1.032c-0.946,0.763-2.195,1.208-3.483,1.327c-1.515,0.143-3.105-0.179-4.307-0.963
		c0,0-0.552-0.358-1.378-0.895c-0.835-0.534-1.936-1.238-3.048-1.921c-1.125-0.68-2.228-1.345-3.069-1.822
		c-0.844-0.468-1.405-0.778-1.405-0.778c-2.264-1.232-3.236-0.295-2.219,1.954c0,0,0.257,0.552,0.614,1.42
		c0.364,0.859,0.85,2.004,1.312,3.188c0.94,2.344,1.846,4.775,1.846,4.775c0.519,1.375,0.459,3.051-0.053,4.56
		c-0.358,1.026-0.916,1.983-1.655,2.702c-0.101,0.104-0.209,0.2-0.319,0.292c0,0-2.019,1.682-4.035,3.364
		c-2.004,1.7-3.976,3.462-3.976,3.462c-1.002,0.886-1.363,1.682-1.136,2.24c0.235,0.576,1.065,0.922,2.407,0.865
		c0,0,2.652-0.101,5.285-0.265c2.663-0.137,5.291-0.355,5.291-0.355c0.889-0.071,1.822,0.093,2.726,0.436
		c1.846,0.692,3.516,2.055,4.456,3.74c0,0,0.083,0.158,0.233,0.429c0.14,0.278,0.361,0.665,0.644,1.131
		c0.561,0.924,1.267,2.171,2.109,3.376c0.417,0.603,0.799,1.22,1.22,1.772c0.418,0.552,0.808,1.068,1.143,1.509
		c0.653,0.889,1.16,1.444,1.16,1.444c0.99,1.145,1.802,1.587,2.297,1.378c0.501-0.209,0.692-1.062,0.519-2.446
		c0,0-0.075-0.674-0.188-1.685c-0.089-1.008-0.125-2.368-0.152-3.659c0-1.315,0.081-2.619,0.134-3.561
		C170.757,420.87,170.811,420.464,170.835,420.186z"/>
</g>
<circle fill="#1ACBC8" cx="572.197" cy="499.326" r="28.179"/>
<g>
</g>
<g>
</g>
<g>
</g>
<g>
</g>
<g>
</g>
<g>
</g>
<g>
</g>
<g>
</g>
<g>
</g>
<g>
</g>
<g>
</g>
<g>
</g>
<g>
</g>
<g>
</g>
<g>
</g>
</svg>
