<?xml version="1.0" encoding="iso-8859-1"?>
<!-- Generator: Adobe Illustrator 26.3.1, SVG Export Plug-In . SVG Version: 6.00 Build 0)  -->
<svg version="1.1" id="Layer_1" xmlns="http://www.w3.org/2000/svg" xmlns:xlink="http://www.w3.org/1999/xlink" x="0px" y="0px"
	 width="1167.211px" height="697.78px" viewBox="0 0 1167.211 697.78" enable-background="new 0 0 1167.211 697.78"
	 xml:space="preserve">
<g>
	<g>
		<path fill="#1BB5B2" d="M289.72,474.079c-1.303,1.196-0.931,2.01,0.825,1.809l6.943-0.793c1.753-0.2,3.792,0.952,4.526,2.558
			l2.9,6.359c0.731,1.609,1.621,1.506,1.972-0.224l0.804-3.955l0.212-1.049l0.377-1.845c0.351-1.733,2.078-3.315,3.834-3.512
			l6.943-0.793c1.753-0.2,1.933-1.079,0.395-1.948l-6.085-3.439c-0.704-0.401-1.288-1.064-1.683-1.833
			c-0.466-0.908-0.663-1.963-0.471-2.9l1.391-6.849c0.354-1.73-0.424-2.172-1.73-0.975l-5.151,4.721
			c-0.731,0.669-1.786,1.049-2.841,1.096l-0.003,0.003c-0.719,0.03-1.444-0.091-2.066-0.377c-0.088-0.041-0.174-0.085-0.256-0.133
			l-6.082-3.439c-1.538-0.872-2.198-0.265-1.465,1.341l2.9,6.359c0.241,0.533,0.354,1.146,0.345,1.765
			c-0.015,1.247-0.513,2.534-1.382,3.33L289.72,474.079z"/>
	</g>
</g>
<circle fill="#FF4242" cx="73.101" cy="535.046" r="73.101"/>
<circle fill="#5055CC" cx="1113.147" cy="643.716" r="54.064"/>
<circle fill="#FFA00D" cx="734.138" cy="312.853" r="312.853"/>
<g>
</g>
<g>
</g>
<g>
</g>
<g>
</g>
<g>
</g>
<g>
</g>
<g>
</g>
<g>
</g>
<g>
</g>
<g>
</g>
<g>
</g>
<g>
</g>
<g>
</g>
<g>
</g>
<g>
</g>
</svg>
