<?xml version="1.0" encoding="iso-8859-1"?>
<!-- Generator: Adobe Illustrator 26.3.1, SVG Export Plug-In . SVG Version: 6.00 Build 0)  -->
<svg version="1.1" id="Layer_1" xmlns="http://www.w3.org/2000/svg" xmlns:xlink="http://www.w3.org/1999/xlink" x="0px" y="0px"
	 width="946.705px" height="527.801px" viewBox="0 0 946.705 527.801" enable-background="new 0 0 946.705 527.801"
	 xml:space="preserve">
<g>
	<path fill="#BCBEC0" d="M235.242,1.326c-0.857,0-1.658-0.085-2.418-0.227c-5.895,3.79-12.151,7.28-18.791,10.262
		c-35.149,15.787-73.725,14.728-94.448,14.158c-21.032-0.543-60.182-1.554-95.772,14.431C15.622,43.629,7.987,48.053,0.91,52.875
		c0.169,1.188,0.176,2.401,0.026,3.592c7.404-5.176,15.433-9.926,24.09-13.814c34.975-15.709,73.685-14.709,94.477-14.171
		c20.961,0.575,59.976,1.646,95.743-14.418c8.347-3.749,16.116-8.26,23.297-13.174C237.535,1.163,236.441,1.326,235.242,1.326z"/>
	<path fill="#BCBEC0" d="M279.939,1.546c-0.79,0-1.528-0.078-2.235-0.199c-13.376,13.376-30.634,27.661-51.53,37.047
		c-35.149,15.787-73.725,14.727-94.452,14.158c-21.035-0.542-60.19-1.55-95.769,14.43C22.774,72.901,11.028,80.742,0.755,89.083
		c0.135,1.333,0.069,2.687-0.192,3.997c10.583-8.833,22.808-17.2,36.604-23.396c34.964-15.704,73.68-14.707,94.477-14.171
		c20.961,0.576,59.977,1.648,95.744-14.416c22.384-10.054,40.616-25.565,54.441-39.698C281.225,1.486,280.602,1.546,279.939,1.546z"
		/>
	<path fill="#BCBEC0" d="M315.389,1.766c-0.555,0-1.083-0.041-1.596-0.102c-0.752,0.888-1.486,1.755-2.177,2.574
		c-13.369,15.883-38.252,45.444-73.301,61.186c-35.149,15.787-73.725,14.727-94.451,14.157
		c-21.032-0.543-60.185-1.552-95.769,14.431c-18.822,8.454-34.723,20.812-47.557,32.963c0.145,1.453,0.054,2.931-0.271,4.349
		c13.034-12.666,29.469-25.818,49.043-34.609c34.969-15.706,73.682-14.708,94.477-14.172c20.961,0.576,59.977,1.648,95.744-14.416
		c35.666-16.019,60.832-45.918,74.352-61.98c1.206-1.429,2.511-2.976,3.902-4.606C317.031,1.682,316.237,1.766,315.389,1.766z"/>
	<path fill="#BCBEC0" d="M355.021,1.546c-1.186,0-2.267-0.159-3.267-0.425c-11.997,11.194-21.389,22.315-27.998,30.15
		c-13.37,15.882-38.255,45.445-73.301,61.186c-35.146,15.786-73.722,14.726-94.448,14.157c-21.035-0.542-60.185-1.553-95.772,14.431
		c-25.142,11.292-45.102,29.548-59.446,44.966c0.131,1.676-0.058,3.377-0.549,4.973c14.321-15.787,34.939-35.437,61.209-47.236
		c34.969-15.706,73.682-14.708,94.477-14.171c20.961,0.576,59.98,1.646,95.744-14.417c35.661-16.017,60.832-45.918,74.353-61.979
		c6.902-8.183,16.873-19.992,29.682-31.668C355.478,1.524,355.257,1.546,355.021,1.546z"/>
	<path fill="#BCBEC0" d="M403.902,1.546c-1.184,0-2.265-0.159-3.263-0.424c-30.509,16.624-52.437,42.592-64.741,57.18
		c-13.37,15.882-38.255,45.445-73.301,61.186c-35.146,15.786-73.722,14.727-94.448,14.157c-21.035-0.542-60.185-1.553-95.772,14.431
		c-33.43,15.015-57.733,42.356-71.796,58.941c0.065,1.127-0.011,2.261-0.226,3.365c0.026,0.494,0.034,0.989,0.007,1.483
		c13.433-15.927,38.364-45.427,73.229-61.086c34.969-15.706,73.682-14.708,94.477-14.171c20.961,0.576,59.979,1.646,95.744-14.417
		c35.664-16.018,60.832-45.918,74.353-61.979c12.821-15.201,36.206-42.906,68.768-59.029C405.998,1.411,404.994,1.546,403.902,1.546
		z"/>
	<path fill="#BCBEC0" d="M601.627,1.546c-1.759,0-3.303-0.328-4.651-0.89c-30.448,9.564-61.113,8.744-78.791,8.258
		c-21.032-0.543-60.182-1.554-95.772,14.431c-35.566,15.974-60.812,45.908-74.374,61.989c-13.37,15.882-38.252,45.443-73.301,61.185
		c-35.149,15.787-73.724,14.728-94.448,14.158c-21.032-0.543-60.182-1.554-95.772,14.431
		c-35.563,15.973-60.809,45.906-74.374,61.989c-2.708,3.217-5.91,7.007-9.559,11.121c0.27,1.415,0.309,2.879,0.119,4.309
		c4.552-5.042,8.477-9.684,11.706-13.521c13.411-15.902,38.376-45.5,73.322-61.196c34.975-15.709,73.685-14.709,94.477-14.171
		c20.961,0.575,59.976,1.646,95.743-14.418c35.666-16.019,60.833-45.917,74.353-61.979c13.409-15.9,38.37-45.498,73.321-61.196
		c34.975-15.709,73.685-14.709,94.478-14.171c19.168,0.526,53.431,1.446,86.503-10.682C603.687,1.416,602.7,1.546,601.627,1.546z"/>
	<path fill="#BCBEC0" d="M660.856,1.326c-0.961,0-1.858-0.097-2.697-0.274c-9.812,7.833-20.957,15.155-33.386,20.737
		c-35.145,15.785-73.72,14.726-94.447,14.156c-21.035-0.542-60.185-1.552-95.772,14.432c-35.563,15.973-60.811,45.908-74.374,61.989
		c-13.37,15.882-38.255,45.445-73.301,61.186c-35.146,15.786-73.722,14.726-94.449,14.157c-21.035-0.542-60.185-1.552-95.769,14.431
		c-35.563,15.973-60.812,45.908-74.376,61.99c-5.311,6.309-12.455,14.775-21.323,23.676c0.16,1.474,0.079,2.975-0.245,4.417
		c10.034-9.817,18.021-19.278,23.833-26.183c13.412-15.901,38.376-45.5,73.324-61.196c34.97-15.706,73.68-14.707,94.474-14.171
		c20.961,0.576,59.98,1.646,95.744-14.417c35.664-16.018,60.833-45.918,74.353-61.979c13.409-15.9,38.374-45.498,73.322-61.195
		c34.972-15.707,73.682-14.708,94.477-14.172c20.961,0.576,59.98,1.646,95.742-14.416c13.841-6.216,26.081-14.525,36.688-23.302
		C662.092,1.27,661.493,1.326,660.856,1.326z"/>
	<path fill="#BCBEC0" d="M701.15,1.326c-0.908,0-1.759-0.089-2.558-0.248c-14.299,15.853-35.049,35.783-61.678,47.743
		c-35.145,15.785-73.721,14.725-94.448,14.156c-21.035-0.542-60.185-1.553-95.772,14.431
		c-35.563,15.973-60.809,45.906-74.374,61.989c-13.369,15.883-38.254,45.446-73.301,61.186
		c-35.146,15.786-73.722,14.726-94.449,14.156c-21.035-0.542-60.185-1.553-95.772,14.431
		c-35.558,15.971-60.809,45.906-74.374,61.989c-7.611,9.042-18.998,22.501-33.832,35.331c0.048,1.496-0.15,2.998-0.595,4.416
		c16.246-13.605,28.582-28.203,36.692-37.837c13.412-15.902,38.378-45.501,73.322-61.196c34.969-15.706,73.682-14.708,94.477-14.171
		c20.961,0.576,59.98,1.647,95.744-14.416c35.664-16.018,60.83-45.917,74.353-61.98c13.411-15.902,38.376-45.5,73.322-61.196
		c34.969-15.706,73.682-14.708,94.477-14.171c20.961,0.576,59.98,1.647,95.742-14.415c28.165-12.65,49.771-33.948,64.276-50.259
		C701.998,1.302,701.582,1.326,701.15,1.326z"/>
	<path fill="#BCBEC0" d="M735.499,1.766c-0.652,0-1.265-0.058-1.861-0.142c-4.37,4.856-8.146,9.324-11.282,13.042
		c-13.372,15.883-38.257,45.446-73.301,61.186c-35.142,15.784-73.72,14.726-94.447,14.156c-21.035-0.542-60.185-1.553-95.772,14.43
		c-35.566,15.974-60.811,45.908-74.373,61.99c-13.372,15.883-38.257,45.446-73.301,61.186
		c-35.144,15.785-73.722,14.726-94.448,14.157c-21.035-0.542-60.185-1.553-95.772,14.43c-35.561,15.972-60.809,45.907-74.373,61.99
		c-9.517,11.304-24.902,29.51-45.598,44.753c0.132,1.259,0.09,2.537-0.132,3.781c21.931-15.711,38.096-34.866,47.996-46.625
		c13.411-15.902,38.375-45.501,73.321-61.197c34.972-15.707,73.683-14.707,94.478-14.17c20.964,0.574,59.982,1.645,95.743-14.417
		c35.661-16.017,60.83-45.917,74.353-61.979c13.409-15.9,38.373-45.5,73.321-61.196c34.972-15.708,73.683-14.707,94.478-14.17
		c20.964,0.574,59.982,1.645,95.742-14.417c35.661-16.017,60.83-45.917,74.353-61.979c3.549-4.209,7.924-9.386,13.064-15.002
		C736.994,1.69,736.271,1.766,735.499,1.766z"/>
	<path fill="#BCBEC0" d="M776.012,1.546c-0.644,0-1.25-0.057-1.839-0.139c-17.704,14.268-31.059,30.072-39.677,40.291
		c-13.37,15.882-38.25,45.443-73.301,61.186c-35.148,15.786-73.723,14.727-94.447,14.156c-21.032-0.543-60.182-1.554-95.772,14.431
		c-35.566,15.974-60.812,45.908-74.374,61.989c-13.37,15.882-38.25,45.443-73.301,61.186
		c-35.149,15.787-73.724,14.728-94.448,14.157c-21.032-0.543-60.182-1.554-95.772,14.431
		c-35.563,15.973-60.809,45.906-74.374,61.989c-11.323,13.451-30.92,36.699-57.945,53.067c0.112,1.173,0.077,2.362-0.116,3.522
		c28.291-16.656,48.656-40.814,60.327-54.679c13.411-15.902,38.376-45.5,73.322-61.196c34.975-15.709,73.685-14.709,94.477-14.171
		c20.961,0.576,59.974,1.649,95.744-14.417c35.667-16.019,60.832-45.918,74.353-61.979c13.409-15.9,38.371-45.498,73.322-61.196
		c34.975-15.709,73.685-14.709,94.477-14.171c20.961,0.576,59.974,1.649,95.742-14.416c35.667-16.019,60.832-45.918,74.353-61.979
		c9.068-10.752,23.429-27.761,42.581-42.505C778.327,1.381,777.224,1.546,776.012,1.546z"/>
	<path fill="#BCBEC0" d="M844.49,1.106c-1.976,0-3.686-0.409-5.144-1.106c-6.144,1.816-12.29,4.025-18.334,6.74
		c-35.566,15.974-60.812,45.908-74.373,61.989c-13.372,15.883-38.257,45.446-73.301,61.186
		c-35.145,15.785-73.72,14.726-94.447,14.156c-21.032-0.543-60.182-1.554-95.772,14.431c-35.566,15.974-60.812,45.908-74.374,61.989
		c-13.372,15.883-38.257,45.446-73.301,61.186c-35.146,15.786-73.722,14.726-94.449,14.157
		c-21.032-0.543-60.182-1.554-95.772,14.431c-35.563,15.973-60.812,45.908-74.374,61.989
		c-12.893,15.316-36.509,43.339-69.605,59.434c0.059,1.145-0.027,2.297-0.257,3.416c34.482-16.24,58.891-45.216,72.128-60.94
		c13.411-15.902,38.376-45.5,73.321-61.196c34.975-15.709,73.683-14.708,94.477-14.171c20.961,0.576,59.98,1.646,95.744-14.417
		c35.661-16.017,60.83-45.917,74.353-61.979c13.409-15.9,38.371-45.498,73.322-61.196c34.975-15.709,73.683-14.708,94.477-14.171
		c20.961,0.576,59.979,1.646,95.742-14.416c35.661-16.017,60.83-45.917,74.353-61.979c13.409-15.9,38.37-45.498,73.321-61.196
		c8.157-3.664,16.516-6.405,24.805-8.468c-0.055-0.028-0.105-0.062-0.16-0.091C846.122,1.022,845.333,1.106,844.49,1.106z"/>
	<path fill="#BCBEC0" d="M946.705,19.589c-6.762,0.05-12.792-0.112-17.78-0.249c-21.032-0.543-60.179-1.554-95.772,14.432
		c-35.569,15.975-60.812,45.908-74.374,61.989c-13.369,15.882-38.255,45.445-73.301,61.186
		c-35.145,15.785-73.72,14.726-94.447,14.156c-21.032-0.543-60.179-1.554-95.772,14.432c-35.569,15.975-60.812,45.908-74.374,61.989
		c-13.37,15.882-38.255,45.445-73.301,61.186c-35.146,15.786-73.722,14.726-94.448,14.157c-21.032-0.543-60.179-1.554-95.772,14.432
		c-35.563,15.973-60.812,45.907-74.374,61.989c-13.37,15.882-38.255,45.445-73.3,61.185c-2.81,1.262-5.642,2.405-8.484,3.457
		c0.1,1.061,0.072,2.135-0.078,3.189c3.275-1.182,6.539-2.489,9.777-3.943c35.662-16.017,60.831-45.917,74.351-61.979
		c13.409-15.9,38.374-45.498,73.322-61.195c34.975-15.709,73.685-14.71,94.477-14.172c20.961,0.576,59.98,1.646,95.744-14.417
		c35.664-16.018,60.832-45.918,74.353-61.979c13.409-15.9,38.371-45.497,73.322-61.195c34.975-15.709,73.685-14.71,94.477-14.172
		c20.961,0.576,59.979,1.646,95.742-14.416c35.664-16.018,60.832-45.918,74.353-61.979c13.409-15.9,38.371-45.497,73.322-61.195
		c34.975-15.709,73.685-14.71,94.477-14.172c4.928,0.135,10.858,0.296,17.508,0.255C946.358,21.558,946.479,20.559,946.705,19.589z"
		/>
	<path fill="#BCBEC0" d="M946.517,46.512c-1.929-0.043-3.752-0.093-5.451-0.14c-21.035-0.542-60.185-1.553-95.772,14.43
		c-35.566,15.974-60.811,45.908-74.373,61.99c-13.37,15.882-38.252,45.443-73.301,61.185
		c-35.148,15.786-73.723,14.727-94.447,14.157c-21.035-0.542-60.185-1.553-95.772,14.43c-35.566,15.974-60.811,45.908-74.373,61.99
		c-13.37,15.882-38.252,45.443-73.301,61.185c-35.149,15.787-73.724,14.728-94.448,14.158c-21.035-0.542-60.185-1.553-95.772,14.43
		c-35.561,15.972-60.808,45.907-74.373,61.99c-13.369,15.882-38.252,45.443-73.3,61.184c-6.742,3.028-13.608,5.421-20.449,7.327
		c0.124,1.018,0.133,2.049,0.025,3.069c7.229-1.976,14.496-4.485,21.638-7.693c35.665-16.019,60.831-45.916,74.352-61.978
		c13.412-15.902,38.375-45.501,73.321-61.196c34.972-15.707,73.683-14.707,94.478-14.17c20.961,0.575,59.977,1.646,95.743-14.418
		c35.667-16.019,60.833-45.917,74.353-61.979c13.409-15.9,38.373-45.5,73.321-61.196c34.972-15.707,73.683-14.707,94.478-14.17
		c20.961,0.575,59.976,1.646,95.742-14.417c35.667-16.019,60.833-45.917,74.353-61.979c13.409-15.9,38.373-45.5,73.321-61.196
		c34.972-15.707,73.683-14.707,94.478-14.17c1.684,0.046,3.489,0.095,5.397,0.138C946.321,48.485,946.362,47.489,946.517,46.512z"/>
	<path fill="#BCBEC0" d="M946.582,73.25c-21.982-0.424-57.011,0.152-89.147,14.586c-35.569,15.975-60.811,45.908-74.373,61.99
		c-13.369,15.882-38.255,45.445-73.301,61.186c-35.142,15.784-73.72,14.726-94.447,14.156c-21.032-0.543-60.18-1.556-95.772,14.43
		c-35.569,15.975-60.811,45.908-74.373,61.99c-13.372,15.883-38.257,45.446-73.298,61.184
		c-35.146,15.786-73.725,14.728-94.451,14.158c-21.032-0.543-60.18-1.556-95.77,14.429c-35.569,15.975-60.814,45.909-74.375,61.991
		c-13.372,15.883-38.257,45.446-73.297,61.184c-10.724,4.817-21.759,8.041-32.515,10.211c0.059,1.021,0.009,2.049-0.162,3.055
		c11.181-2.207,22.691-5.532,33.892-10.563c35.657-16.015,60.826-45.915,74.349-61.978c13.409-15.9,38.373-45.5,73.324-61.198
		c34.972-15.707,73.683-14.707,94.475-14.17c20.964,0.575,59.982,1.645,95.746-14.418c35.658-16.016,60.827-45.916,74.35-61.978
		c13.409-15.9,38.368-45.497,73.322-61.196c34.975-15.709,73.685-14.708,94.477-14.171c20.964,0.575,59.982,1.645,95.742-14.416
		c35.664-16.018,60.832-45.918,74.353-61.979c13.409-15.9,38.368-45.497,73.321-61.196c31.479-14.138,65.976-14.741,87.719-14.328
		C946.332,75.218,946.401,74.223,946.582,73.25z"/>
</g>
</svg>
