<?xml version="1.0" encoding="iso-8859-1"?>
<!-- Generator: Adobe Illustrator 26.3.1, SVG Export Plug-In . SVG Version: 6.00 Build 0)  -->
<svg version="1.1" id="Layer_1" xmlns="http://www.w3.org/2000/svg" xmlns:xlink="http://www.w3.org/1999/xlink" x="0px" y="0px"
	 width="1037px" height="544px" viewBox="0 0 1037 544" enable-background="new 0 0 1037 544" xml:space="preserve">
<circle fill="#FFFFFF" cx="235.338" cy="29.546" r="9.296"/>
<circle fill="#FFFFFF" cx="337.251" cy="225.109" r="9.296"/>
<circle fill="#FFFFFF" cx="500.794" cy="90.832" r="9.296"/>
<circle fill="#FFFFFF" cx="552.284" cy="448.749" r="11.173"/>
<circle fill="#FFFFFF" cx="221.222" cy="520.863" r="9.296"/>
<circle fill="#FFFFFF" cx="1001.407" cy="227.864" r="9.296"/>
<circle fill="#FFFFFF" cx="679.142" cy="202.762" r="14.772"/>
<circle fill="#FFFFFF" cx="693.258" cy="230.651" r="6.886"/>
<circle fill="#FFFFFF" cx="35.849" cy="277.992" r="8.78"/>
<circle fill="#FFFFFF" cx="60.606" cy="191.573" r="4.992"/>
<circle fill="#FFFFFF" cx="24.626" cy="225.421" r="19.625"/>
<circle fill="#FFFFFF" cx="456.724" cy="531.258" r="5.165"/>
<circle fill="#FFFFFF" cx="580.414" cy="467.239" r="4.906"/>
<circle fill="#FFFFFF" cx="570.687" cy="421.705" r="4.906"/>
<circle fill="#FFFFFF" cx="938.745" cy="461.644" r="4.906"/>
<circle fill="#FFFFFF" cx="1026.197" cy="243.013" r="4.906"/>
<circle fill="#FFFFFF" cx="268.736" cy="10.954" r="4.906"/>
<circle fill="#FFFFFF" cx="181.401" cy="458.947" r="4.906"/>
<circle fill="#FFFFFF" cx="958.435" cy="482.95" r="13.7"/>
<g>
	<path fill="#FFFFFF" d="M215.674,479.099c0.015-0.141,0.024-0.223,0.024-0.223c0.126-1.307,1.41-2.543,2.7-2.847
		c0,0,0.316-0.079,0.792-0.197c0.479-0.128,1.111-0.307,1.735-0.498c1.25-0.377,2.46-0.817,2.46-0.817
		c0.614-0.231,0.951-0.473,1.02-0.678c0.065-0.207-0.143-0.371-0.667-0.468c0,0-0.038-0.008-0.103-0.021
		c-0.067-0.009-0.16-0.035-0.27-0.067c-0.228-0.064-0.53-0.149-0.833-0.234c-0.153-0.047-0.307-0.093-0.451-0.137
		c-0.143-0.053-0.278-0.103-0.394-0.146c-0.231-0.088-0.384-0.146-0.384-0.146l-0.662-0.26c0,0-0.075-0.029-0.182-0.079
		c-0.109-0.05-0.255-0.117-0.401-0.184c-0.293-0.138-0.587-0.275-0.587-0.275c-0.278-0.126-0.524-0.322-0.731-0.564
		c-0.207-0.24-0.378-0.514-0.503-0.813c-0.245-0.621-0.307-1.296-0.123-1.932c0,0,0.091-0.309,0.226-0.773
		c0.138-0.453,0.314-1.102,0.495-1.729c0.184-0.623,0.348-1.298,0.479-1.781c0.131-0.486,0.21-0.828,0.21-0.828
		c0.324-1.369-0.27-1.788-1.299-0.898c0,0-1.025,0.863-2.051,1.726c-0.515,0.426-1.029,0.852-1.416,1.172
		c-0.387,0.316-0.646,0.526-0.646,0.526c-0.482,0.389-1.118,0.615-1.775,0.676c-0.772,0.073-1.582-0.091-2.194-0.491
		c0,0-0.281-0.182-0.702-0.456c-0.425-0.272-0.986-0.631-1.553-0.978c-0.573-0.346-1.135-0.685-1.563-0.928
		c-0.43-0.238-0.716-0.397-0.716-0.397c-1.153-0.627-1.648-0.15-1.13,0.995c0,0,0.131,0.281,0.313,0.723
		c0.185,0.438,0.433,1.021,0.668,1.624c0.479,1.194,0.94,2.432,0.94,2.432c0.264,0.7,0.234,1.554-0.027,2.323
		c-0.182,0.523-0.467,1.01-0.843,1.377c-0.052,0.053-0.106,0.102-0.163,0.149c0,0-1.029,0.857-2.056,1.714
		c-1.021,0.866-2.025,1.764-2.025,1.764c-0.51,0.451-0.694,0.857-0.579,1.141c0.12,0.293,0.542,0.47,1.226,0.441
		c0,0,1.351-0.052,2.692-0.135c1.357-0.07,2.695-0.181,2.695-0.181c0.453-0.036,0.928,0.047,1.389,0.222
		c0.94,0.353,1.791,1.047,2.27,1.905c0,0,0.042,0.081,0.119,0.219c0.071,0.141,0.184,0.339,0.328,0.576
		c0.286,0.471,0.646,1.106,1.074,1.72c0.213,0.307,0.407,0.621,0.621,0.903c0.213,0.281,0.412,0.544,0.582,0.769
		c0.333,0.453,0.591,0.735,0.591,0.735c0.505,0.583,0.918,0.808,1.17,0.702c0.255-0.106,0.353-0.541,0.264-1.246
		c0,0-0.038-0.343-0.096-0.858c-0.046-0.514-0.064-1.206-0.077-1.864c0-0.67,0.041-1.334,0.068-1.814
		C215.635,479.447,215.662,479.241,215.674,479.099z"/>
</g>
<g>
	<path fill="#FFFFFF" d="M994.946,471.789c0.017-0.108,0.027-0.17,0.027-0.17c0.145-0.997,1.174-1.899,2.175-2.084
		c0,0,0.245-0.049,0.614-0.122c0.372-0.08,0.863-0.195,1.349-0.319c0.973-0.243,1.916-0.536,1.916-0.536
		c0.479-0.155,0.747-0.327,0.807-0.482c0.058-0.156-0.096-0.29-0.494-0.383c0,0-0.029-0.007-0.078-0.02
		c-0.051-0.009-0.121-0.033-0.205-0.061c-0.172-0.057-0.401-0.134-0.63-0.21c-0.116-0.042-0.232-0.082-0.341-0.121
		c-0.108-0.046-0.209-0.089-0.296-0.126c-0.174-0.076-0.289-0.126-0.289-0.126l-0.498-0.224c0,0-0.056-0.025-0.137-0.067
		c-0.082-0.042-0.191-0.099-0.301-0.156c-0.22-0.117-0.44-0.232-0.44-0.232c-0.209-0.107-0.39-0.266-0.54-0.459
		c-0.15-0.192-0.271-0.408-0.356-0.642c-0.165-0.485-0.188-1.005-0.023-1.486c0,0,0.081-0.233,0.202-0.585
		c0.123-0.342,0.282-0.833,0.443-1.308c0.164-0.471,0.315-0.982,0.432-1.348c0.118-0.368,0.191-0.627,0.191-0.627
		c0.298-1.038-0.142-1.381-0.963-0.736c0,0-0.818,0.624-1.636,1.248c-0.411,0.307-0.82,0.616-1.129,0.846
		c-0.309,0.228-0.514,0.379-0.514,0.379c-0.384,0.281-0.88,0.431-1.386,0.453c-0.595,0.028-1.209-0.128-1.664-0.457
		c0,0-0.209-0.15-0.521-0.375c-0.316-0.224-0.733-0.52-1.155-0.807c-0.427-0.287-0.845-0.567-1.165-0.769
		c-0.321-0.199-0.534-0.33-0.534-0.33c-0.861-0.523-1.258-0.176-0.903,0.722c0,0,0.09,0.22,0.214,0.566
		c0.126,0.342,0.294,0.799,0.453,1.27c0.323,0.933,0.632,1.9,0.632,1.9c0.177,0.547,0.122,1.2-0.106,1.78
		c-0.159,0.394-0.395,0.758-0.697,1.025c-0.042,0.039-0.085,0.074-0.13,0.108c0,0-0.82,0.619-1.639,1.239
		c-0.815,0.627-1.618,1.278-1.618,1.278c-0.408,0.327-0.564,0.632-0.486,0.854c0.081,0.229,0.399,0.38,0.924,0.383
		c0,0,1.038,0.01,2.069-0.005c1.043-0.004,2.073-0.04,2.073-0.04c0.349-0.011,0.71,0.07,1.057,0.221
		c0.708,0.305,1.335,0.869,1.671,1.544c0,0,0.03,0.063,0.083,0.172c0.05,0.111,0.128,0.267,0.23,0.454
		c0.202,0.372,0.454,0.872,0.76,1.358c0.152,0.243,0.289,0.491,0.443,0.715c0.153,0.223,0.296,0.432,0.418,0.611
		c0.238,0.359,0.426,0.586,0.426,0.586c0.365,0.466,0.674,0.653,0.871,0.581c0.2-0.072,0.29-0.402,0.248-0.946
		c0,0-0.016-0.265-0.042-0.662c-0.016-0.395-0.005-0.927,0.009-1.432c0.025-0.514,0.081-1.021,0.119-1.389
		C994.903,472.054,994.932,471.897,994.946,471.789z"/>
</g>
<g>
	<path fill="#FFFFFF" d="M808.574,36.061c0.014-0.135,0.023-0.214,0.023-0.214c0.121-1.252,1.351-2.437,2.586-2.728
		c0,0,0.303-0.076,0.758-0.189c0.459-0.122,1.064-0.294,1.662-0.478c1.198-0.361,2.356-0.783,2.356-0.783
		c0.588-0.221,0.911-0.453,0.977-0.649c0.063-0.198-0.137-0.355-0.639-0.448c0,0-0.036-0.007-0.099-0.02
		c-0.064-0.009-0.153-0.034-0.259-0.064c-0.218-0.061-0.508-0.143-0.798-0.224c-0.147-0.045-0.294-0.089-0.432-0.131
		c-0.137-0.051-0.266-0.099-0.377-0.14c-0.221-0.085-0.368-0.14-0.368-0.14l-0.635-0.249c0,0-0.071-0.028-0.175-0.076
		c-0.105-0.048-0.245-0.112-0.384-0.176c-0.281-0.133-0.562-0.264-0.562-0.264c-0.266-0.121-0.502-0.309-0.7-0.54
		c-0.198-0.23-0.362-0.492-0.482-0.779c-0.234-0.595-0.294-1.242-0.118-1.851c0,0,0.087-0.296,0.217-0.741
		c0.132-0.434,0.301-1.055,0.474-1.656c0.176-0.597,0.333-1.243,0.458-1.706c0.125-0.466,0.201-0.793,0.201-0.793
		c0.31-1.311-0.259-1.713-1.245-0.86c0,0-0.982,0.827-1.965,1.654c-0.494,0.408-0.986,0.817-1.357,1.122
		c-0.371,0.303-0.619,0.503-0.619,0.503c-0.461,0.373-1.071,0.59-1.7,0.648c-0.739,0.07-1.515-0.087-2.102-0.47
		c0,0-0.269-0.175-0.672-0.437c-0.408-0.261-0.945-0.604-1.488-0.937c-0.549-0.332-1.087-0.656-1.498-0.889
		c-0.412-0.228-0.686-0.38-0.686-0.38c-1.105-0.601-1.579-0.144-1.083,0.953c0,0,0.125,0.269,0.3,0.693
		c0.177,0.419,0.415,0.978,0.64,1.556c0.459,1.144,0.901,2.33,0.901,2.33c0.253,0.671,0.224,1.489-0.026,2.225
		c-0.175,0.501-0.447,0.968-0.808,1.319c-0.049,0.051-0.102,0.097-0.156,0.143c0,0-0.985,0.821-1.969,1.642
		c-0.978,0.83-1.94,1.69-1.94,1.69c-0.489,0.432-0.665,0.821-0.554,1.093c0.115,0.281,0.52,0.45,1.174,0.422
		c0,0,1.294-0.049,2.579-0.13c1.3-0.067,2.582-0.173,2.582-0.173c0.434-0.035,0.889,0.045,1.33,0.213
		c0.901,0.338,1.716,1.003,2.175,1.825c0,0,0.041,0.077,0.114,0.21c0.068,0.135,0.176,0.325,0.314,0.552
		c0.274,0.451,0.619,1.06,1.029,1.648c0.204,0.294,0.39,0.595,0.595,0.865c0.204,0.269,0.395,0.521,0.558,0.736
		c0.319,0.434,0.566,0.705,0.566,0.705c0.483,0.559,0.879,0.774,1.121,0.673c0.245-0.102,0.338-0.518,0.253-1.194
		c0,0-0.036-0.329-0.092-0.822c-0.044-0.492-0.061-1.156-0.074-1.786c0-0.642,0.039-1.278,0.065-1.738
		C808.536,36.394,808.562,36.196,808.574,36.061z"/>
</g>
<g>
</g>
<g>
</g>
<g>
</g>
<g>
</g>
<g>
</g>
<g>
</g>
<g>
</g>
<g>
</g>
<g>
</g>
<g>
</g>
<g>
</g>
<g>
</g>
<g>
</g>
<g>
</g>
<g>
</g>
</svg>
