<?xml version="1.0" encoding="iso-8859-1"?>
<!-- Generator: Adobe Illustrator 26.3.1, SVG Export Plug-In . SVG Version: 6.00 Build 0)  -->
<svg version="1.1" id="Layer_1" xmlns="http://www.w3.org/2000/svg" xmlns:xlink="http://www.w3.org/1999/xlink" x="0px" y="0px"
	 width="761.291px" height="729.118px" viewBox="0 0 761.291 729.118" enable-background="new 0 0 761.291 729.118"
	 xml:space="preserve">
<circle fill="#FF9F0D" cx="315.97" cy="427.541" r="111.5"/>
<circle fill="#CE1C6F" cx="731.904" cy="29.388" r="29.388"/>
<circle fill="#1BB5B2" cx="27.244" cy="305.659" r="27.244"/>
<g>
	<g>
		<path fill="#5055CC" d="M98.991,700.555c-3.359,3.085-2.401,5.182,2.127,4.666l17.903-2.044c4.522-0.517,9.78,2.454,11.672,6.596
			l7.477,16.398c1.885,4.149,4.18,3.883,5.084-0.577l2.075-10.198l0.547-2.705l0.973-4.758c0.904-4.468,5.358-8.549,9.886-9.058
			l17.903-2.044c4.521-0.517,4.985-2.782,1.018-5.023l-15.692-8.868c-1.816-1.033-3.32-2.743-4.339-4.726
			c-1.201-2.341-1.71-5.061-1.215-7.477l3.586-17.661c0.912-4.46-1.094-5.6-4.46-2.515l-13.284,12.173
			c-1.885,1.725-4.605,2.706-7.325,2.827l-0.008,0.008c-1.854,0.076-3.723-0.236-5.326-0.973c-0.228-0.107-0.448-0.22-0.661-0.342
			l-15.684-8.868c-3.967-2.25-5.669-0.684-3.777,3.457l7.478,16.399c0.623,1.375,0.912,2.955,0.889,4.551
			c-0.038,3.215-1.322,6.536-3.564,8.587L98.991,700.555z"/>
	</g>
</g>
<g>
</g>
<g>
</g>
<g>
</g>
<g>
</g>
<g>
</g>
<g>
</g>
<g>
</g>
<g>
</g>
<g>
</g>
<g>
</g>
<g>
</g>
<g>
</g>
<g>
</g>
<g>
</g>
<g>
</g>
</svg>
