<?xml version="1.0" encoding="iso-8859-1"?>
<!-- Generator: Adobe Illustrator 26.3.1, SVG Export Plug-In . SVG Version: 6.00 Build 0)  -->
<svg version="1.1" id="Layer_1" xmlns="http://www.w3.org/2000/svg" xmlns:xlink="http://www.w3.org/1999/xlink" x="0px" y="0px"
	 width="446.532px" height="515.698px" viewBox="0 0 446.532 515.698" enable-background="new 0 0 446.532 515.698"
	 xml:space="preserve">
<g>
	<g>
		<path fill="#FF9F0D" d="M336.802,504.018c-1.374,1.262-0.982,2.119,0.87,1.908l7.321-0.836c1.849-0.211,3.999,1.004,4.773,2.697
			l3.058,6.706c0.771,1.697,1.709,1.588,2.079-0.236l0.848-4.17l0.224-1.106l0.398-1.945c0.37-1.827,2.191-3.496,4.043-3.704
			l7.321-0.836c1.849-0.211,2.038-1.138,0.416-2.054l-6.417-3.626c-0.743-0.423-1.358-1.122-1.774-1.933
			c-0.491-0.957-0.699-2.07-0.497-3.058l1.467-7.222c0.373-1.824-0.447-2.29-1.824-1.028l-5.432,4.978
			c-0.771,0.705-1.883,1.106-2.995,1.156l-0.003,0.003c-0.758,0.031-1.523-0.096-2.178-0.398c-0.093-0.044-0.183-0.09-0.27-0.14
			l-6.414-3.626c-1.622-0.92-2.318-0.28-1.545,1.414l3.058,6.706c0.255,0.562,0.373,1.209,0.363,1.861
			c-0.016,1.314-0.541,2.673-1.457,3.511L336.802,504.018z"/>
	</g>
</g>
<circle fill="#5055CC" cx="421.266" cy="424" r="25.266"/>
<circle fill="#FF4242" cx="219.633" cy="219.633" r="219.633"/>
<g>
</g>
<g>
</g>
<g>
</g>
<g>
</g>
<g>
</g>
<g>
</g>
<g>
</g>
<g>
</g>
<g>
</g>
<g>
</g>
<g>
</g>
<g>
</g>
<g>
</g>
<g>
</g>
<g>
</g>
</svg>
