<?xml version="1.0" encoding="iso-8859-1"?>
<!-- Generator: Adobe Illustrator 26.3.1, SVG Export Plug-In . SVG Version: 6.00 Build 0)  -->
<svg version="1.1" id="Layer_1" xmlns="http://www.w3.org/2000/svg" xmlns:xlink="http://www.w3.org/1999/xlink" x="0px" y="0px"
	 width="608.826px" height="1089.688px" viewBox="0 0 608.826 1089.688" enable-background="new 0 0 608.826 1089.688"
	 xml:space="preserve">
<g>
	<g>
		<path fill="#FF4242" d="M47.664,579.138c-2.238,2.055-1.6,3.452,1.417,3.108l11.926-1.362c3.012-0.344,6.515,1.635,7.775,4.394
			l4.981,10.924c1.255,2.764,2.785,2.587,3.387-0.385l1.382-6.794l0.364-1.802l0.648-3.169c0.602-2.976,3.569-5.695,6.586-6.034
			l11.926-1.362c3.012-0.344,3.321-1.853,0.678-3.346l-10.453-5.908c-1.21-0.688-2.212-1.827-2.89-3.148
			c-0.8-1.559-1.139-3.371-0.81-4.981l2.389-11.765c0.608-2.971-0.729-3.731-2.971-1.675l-8.849,8.109
			c-1.255,1.149-3.068,1.802-4.88,1.883l-0.005,0.005c-1.235,0.051-2.48-0.157-3.548-0.648c-0.152-0.071-0.299-0.147-0.441-0.228
			l-10.448-5.907c-2.643-1.499-3.776-0.456-2.516,2.303l4.981,10.924c0.415,0.916,0.608,1.969,0.592,3.032
			c-0.025,2.141-0.881,4.354-2.374,5.72L47.664,579.138z"/>
	</g>
</g>
<circle fill="#DF3583" cx="545.633" cy="63.193" r="63.193"/>
<circle fill="#1BB5B2" cx="200.147" cy="889.541" r="200.147"/>
<g>
</g>
<g>
</g>
<g>
</g>
<g>
</g>
<g>
</g>
<g>
</g>
<g>
</g>
<g>
</g>
<g>
</g>
<g>
</g>
<g>
</g>
<g>
</g>
<g>
</g>
<g>
</g>
<g>
</g>
</svg>
