<?xml version="1.0" encoding="iso-8859-1"?>
<!-- Generator: Adobe Illustrator 26.3.1, SVG Export Plug-In . SVG Version: 6.00 Build 0)  -->
<svg version="1.1" id="Layer_1" xmlns="http://www.w3.org/2000/svg" xmlns:xlink="http://www.w3.org/1999/xlink" x="0px" y="0px"
	 width="2055.947px" height="1543.518px" viewBox="0 0 2055.947 1543.518" enable-background="new 0 0 2055.947 1543.518"
	 xml:space="preserve">
<g>
	<path fill="#F29F05" d="M1220.758,176.684c-15.214,0-17.06,23.662-1.744,23.662
		C1234.221,200.346,1236.074,176.684,1220.758,176.684z"/>
</g>
<g>
	<path fill="#59A9C2" d="M1134.06,124.687c0.142-0.088,0.284-0.186,0.435-0.266l10.548-5.983c1.338-0.772,1.923-1.551,1.799-2.208
		c-0.115-0.567-0.939-1.01-2.455-1.161l-11.994-1.357c-0.992-0.115-2.02-0.523-2.898-1.055c-1.764-1.09-3.156-2.934-3.475-4.866
		c0,0-0.106-0.709-0.213-1.756c-0.114-1.063-0.283-2.464-0.434-3.864c-0.212-1.41-0.177-2.801-0.24-3.848
		c-0.044-1.046-0.071-1.746-0.071-1.746c-0.115-2.8-1.604-3.306-3.306-0.921c0,0-1.694,2.358-3.369,4.929
		c-0.878,1.285-1.534,2.588-2.119,3.59c-0.559,1.001-0.939,1.675-0.939,1.675c-1.516,2.721-5.142,4.646-8.156,4.042
		c0,0-2.961-0.62-5.948-1.347c-2.969-0.718-5.965-1.551-5.965-1.551c-3.014-0.851-3.758,0.807-1.613,3.625
		c0,0,0.301,0.399,0.753,0.984c0.461,0.595,1.116,1.294,1.755,2.021c1.268,1.418,2.544,2.837,2.544,2.837l1.348,1.48
		c0,0.062,2.411,2.393,2.411,2.393c1.125,1.099,1.897,2.678,2.216,4.335c0.301,1.542,0.16,3.173-0.497,4.511
		c0.107,0.275-5.478,9.839-5.61,9.583c-1.587,2.11-0.567,2.935,2.242,1.914c0,0,2.784-1.028,5.55-2.171
		c2.766-1.126,5.531-2.367,5.531-2.367c1.268-0.575,2.784-0.78,4.264-0.611c1.737,0.194,3.395,0.913,4.511,2.1
		c0,0,0.515,0.541,1.277,1.365c0.726,0.824,1.844,1.942,2.739,3.112c1.88,2.322,3.75,4.849,3.75,4.849
		c1.897,2.571,3.351,2.119,3.236-1.197c0,0-0.036-0.815-0.089-2.03c-0.071-1.224-0.054-2.863-0.275-4.459
		c-0.177-1.605-0.363-3.209-0.496-4.406c-0.124-1.205-0.248-1.985-0.248-1.985c-0.292-1.773,0.142-3.732,1.055-5.399
		C1132.243,126.318,1133.076,125.335,1134.06,124.687z"/>
</g>
<circle fill="#CE1C6F" cx="1276.298" cy="28.083" r="28.083"/>
<circle fill="#5055CC" cx="858.688" cy="184.995" r="94.28"/>
<g>
	<path fill="#FFBB3D" d="M1679.294,724.246c-0.128-0.224-0.614-0.673-1.474-1.233c0,0-0.429-0.289-1.07-0.656
		c-0.646-0.377-1.524-0.858-2.429-1.309c-1.805-0.912-3.745-1.652-3.745-1.652c-0.878-0.328-1.77-0.905-2.488-1.654
		c-0.828-0.861-1.376-1.956-1.403-3.065c0,0-0.037-0.513,0.025-1.245c0.022-0.372,0.054-0.816,0.098-1.302
		c0.044-0.486,0.096-1.021,0.21-1.519c0.207-1.008,0.427-2.123,0.695-2.89c0.262-0.772,0.461-1.307,0.461-1.307
		c0.4-1.075,0.427-1.792,0.069-2.042c-0.352-0.249-1.097-0.025-2.123,0.747c0,0-0.126,0.096-0.348,0.262
		c-0.229,0.158-0.523,0.421-0.873,0.745c-0.693,0.648-1.662,1.472-2.466,2.441c-0.412,0.473-0.848,0.932-1.208,1.393
		c-0.348,0.471-0.671,0.91-0.947,1.285c-0.276,0.377-0.51,0.691-0.661,0.917c-0.141,0.227-0.222,0.36-0.222,0.36
		c-0.365,0.594-0.846,1.134-1.401,1.613c-0.542,0.481-1.109,0.915-1.743,1.255c-0.429,0.234-0.875,0.429-1.324,0.57
		c-0.441,0.145-0.865,0.239-1.292,0.269c-0.118,0.01-0.237,0.01-0.355,0.01c0,0-2.138-0.059-4.332,0.039
		c-1.105,0.044-2.192,0.118-3.001,0.18c-0.813,0.071-1.359,0.118-1.359,0.118c-2.209,0.21-2.747,1.788-1.021,3.198
		c0,0,1.674,1.418,3.39,2.71c0.848,0.653,1.743,1.27,2.402,1.729c0.666,0.449,1.109,0.749,1.109,0.749
		c0.599,0.399,1.115,0.984,1.524,1.662c0.745,1.19,1.132,2.642,1.105,4.002c-0.005,0.191,0.01,0.386-0.012,0.572
		c0,0-0.071,0.56-0.18,1.403c-0.071,0.839-0.209,1.963-0.271,3.075c-0.079,1.115-0.136,2.226-0.156,3.057
		c-0.034,0.831-0.039,1.383-0.039,1.383c-0.025,2.244,0.991,2.559,2.259,0.801c0,0,0.313-0.429,0.782-1.075
		c0.486-0.639,1.129-1.479,1.778-2.298c0.671-0.821,1.336-1.615,1.842-2.199c0.52-0.577,0.865-0.961,0.865-0.961
		c1.383-1.558,4.182-1.938,6.093-1.115c0,0,0.476,0.197,1.191,0.496c0.713,0.291,1.677,0.675,2.646,1.045
		c1.933,0.745,3.871,1.408,3.871,1.408c1.963,0.651,2.656,0.082,1.534-1.312c0,0-0.611-0.772-1.223-1.598
		c-0.313-0.417-0.584-0.804-0.806-1.117c-0.217-0.311-0.362-0.518-0.362-0.518l-0.604-0.893c0,0-0.042-0.066-0.099-0.155
		c-0.096-0.149-0.246-0.384-0.404-0.629c-0.251-0.404-0.503-0.809-0.503-0.809c-0.247-0.397-0.353-0.782-0.405-1.203
		c-0.039-0.407-0.03-0.858,0.111-1.225c0.261-0.752,0.799-1.42,1.608-1.664c0,0,0.382-0.126,0.959-0.316
		c0.572-0.173,1.366-0.298,2.091-0.414c0.745-0.096,1.489-0.057,1.997-0.047c0.254,0,0.473,0.032,0.626,0.064
		c0.153,0.027,0.239,0.042,0.239,0.042C1679.215,724.561,1679.42,724.485,1679.294,724.246z"/>
</g>
<circle fill="#1ACBC8" cx="1978.662" cy="492.899" r="77.284"/>
<circle fill="#EBEEF0" cx="1767.617" cy="818.22" r="36.661"/>
<circle fill="#FF4242" cx="127.5" cy="1416.018" r="127.5"/>
<g>
</g>
<g>
</g>
<g>
</g>
<g>
</g>
<g>
</g>
<g>
</g>
<g>
</g>
<g>
</g>
<g>
</g>
<g>
</g>
<g>
</g>
<g>
</g>
<g>
</g>
<g>
</g>
<g>
</g>
</svg>
