<?xml version="1.0" encoding="UTF-8"?>
<svg xmlns="http://www.w3.org/2000/svg" viewBox="0 0 102.3 102.3">
  <g class="hotspot-icon">
    <path d="M51.15,15.35c-19.7,0-35.8,16-35.8,35.8s16,35.9,35.8,35.9,35.9-16,35.9-35.9S71.05,15.35,51.15,15.35ZM51.15,83.05c-17.5,0-31.8-14.3-31.8-31.8s14.3-31.8,31.8-31.8,31.9,14.2,31.9,31.7-14.3,31.9-31.9,31.9ZM51.15,24.65c-14.7,0-26.5,11.9-26.5,26.5s11.9,26.5,26.5,26.5,26.5-11.9,26.5-26.5-11.8-26.5-26.5-26.5ZM62.75,53.45h-9.3v9.3c0,1.3-1.1,2.3-2.3,2.3s-2.3-1.1-2.3-2.3v-9.3h-9.3c-1.3,0-2.3-1.1-2.3-2.3s1.1-2.3,2.3-2.3h9.3v-9.3c0-1.3,1.1-2.3,2.3-2.3s2.3,1.1,2.3,2.3v9.3h9.3c1.3,0,2.3,1.1,2.3,2.3,0,1.3-1,2.3-2.3,2.3Z" fill="#fff" stroke-width="0"/>
  </g>
  <circle class="hotspot-ring" cx="51.15" cy="51.15" r="50" fill="none" isolation="isolate" opacity=".3" stroke="#fff" stroke-miterlimit="10" stroke-width="2.3"/>
</svg>