<svg id="Capa_1" enable-background="new 0 0 305.427 305.427" height="512" viewBox="0 0 305.427 305.427" width="512" xmlns="http://www.w3.org/2000/svg"><g><path d="m304.758 155.78c0-45.23-34.205-82.388-77.452-85.706v-31.98c0-25.008-57.007-38.094-113.318-38.094s-113.319 13.086-113.319 38.094v223.219c0 23.501 52.952 44.114 113.318 44.114s113.318-20.613 113.318-44.114v-19.829c43.246-3.318 77.453-40.475 77.453-85.704zm-77.454-31.494c14.131 3.019 24.789 15.994 24.789 31.494s-10.658 28.475-24.789 31.492zm-187.201-102.643c19.648-5.838 45.887-9.053 73.884-9.053s54.236 3.215 73.884 9.053c21.191 6.296 26.846 13.303 26.846 16.451 0 1.885-2.031 5.153-8.205 8.824-20.654-9.498-54.823-15.118-92.526-15.118s-71.872 5.622-92.525 15.118c-6.174-3.671-8.205-6.939-8.205-8.824.001-3.148 5.654-10.156 26.847-16.451zm149.599 32.344c-.598.187-1.207.373-1.832.559-19.648 5.838-45.887 9.053-73.884 9.053s-54.236-3.215-73.884-9.053c-.625-.186-1.234-.372-1.832-.559 19.289-6.037 46.668-9.599 75.716-9.599s56.428 3.563 75.716 9.599zm25.014 207.326c0 11.072-41.539 31.524-100.73 31.524s-100.73-20.451-100.73-31.524v-204.751c1.454.947 3.021 1.859 4.688 2.737.269.169.549.312.841.438 21.287 10.859 58.391 16.451 95.202 16.451 36.682 0 73.654-5.555 94.976-16.338.419-.163.818-.37 1.196-.619 1.619-.858 3.142-1.748 4.559-2.669v204.751zm12.588-32.453v-28.805c21.108-3.136 37.379-21.791 37.379-44.275s-16.27-41.139-37.379-44.277v-28.805c36.296 3.299 64.864 34.806 64.864 73.08s-28.566 69.782-64.864 73.082z"/></g></svg>