<svg id="Layer_1" enable-background="new 0 0 512 512" height="512" viewBox="0 0 512 512" width="512" xmlns="http://www.w3.org/2000/svg"><path d="m389.397 308.479h53.591c14.162 0 25.683-11.521 25.683-25.684v-35.145l32.705-29.68c3.272-2.969 3.518-8.029.548-11.3-2.97-3.272-8.029-3.518-11.3-.548l-22.134 20.086c-1.49-12.755-12.355-22.687-25.502-22.687h-53.591c-14.162 0-25.684 11.521-25.684 25.684v18.762l-39.458-.163v-134.112h39.458v18.795c0 14.162 11.521 25.684 25.684 25.684h53.591c14.162 0 25.683-11.521 25.683-25.684v-35.144l32.706-29.681c3.271-2.969 3.517-8.029.548-11.301-2.97-3.271-8.028-3.518-11.301-.548l-22.134 20.087c-1.49-12.755-12.355-22.687-25.502-22.687h-53.591c-14.162 0-25.684 11.521-25.684 25.684v18.795h-47.458c-4.418 0-8 3.582-8 8v142.045l-39.737-.164c-4.359-67.989-61.048-121.972-130.119-121.972-71.902 0-130.399 58.497-130.399 130.399s58.497 130.399 130.398 130.399c69.36 0 126.237-54.435 130.173-122.825l39.683.164v142.57c0 4.418 3.582 8 8 8h47.458v18.795c0 14.162 11.521 25.684 25.684 25.684h53.591c14.162 0 25.683-11.521 25.683-25.684v-35.145l32.705-29.68c3.272-2.969 3.518-8.029.548-11.3-2.97-3.273-8.029-3.518-11.3-.548l-22.134 20.086c-1.49-12.755-12.355-22.688-25.503-22.688h-53.591c-14.162 0-25.684 11.521-25.684 25.684v18.795h-39.458v-134.503l39.458.163v18.828c.002 14.163 11.524 25.684 25.686 25.684zm-9.684-229.582c0-5.339 4.344-9.684 9.684-9.684h53.591c5.339 0 9.683 4.344 9.683 9.684v11.36l-19.6 17.787-20.63-20.63c-3.123-3.124-8.188-3.125-11.313 0-3.124 3.124-3.125 8.189 0 11.313l26.019 26.02c1.558 1.558 3.606 2.343 5.658 2.343 1.922 0 3.847-.689 5.375-2.076l14.491-13.151v20.624c0 5.339-4.344 9.684-9.683 9.684h-53.591c-5.339 0-9.684-4.344-9.684-9.684zm-241.315 291.502c-63.079 0-114.398-51.319-114.398-114.399s51.319-114.399 114.398-114.399 114.399 51.319 114.399 114.399-51.319 114.399-114.399 114.399zm241.315 9.113c0-5.339 4.344-9.684 9.684-9.684h53.591c5.339 0 9.683 4.344 9.683 9.684v11.36l-19.6 17.787-20.63-20.63c-3.123-3.124-8.188-3.125-11.313 0-3.124 3.124-3.125 8.189 0 11.313l26.019 26.02c1.558 1.558 3.606 2.343 5.658 2.343 1.922 0 3.847-.689 5.375-2.076l14.491-13.151v20.625c0 5.339-4.344 9.684-9.683 9.684h-53.591c-5.339 0-9.684-4.344-9.684-9.684zm0-150.307c0-5.339 4.344-9.684 9.684-9.684h53.591c5.339 0 9.683 4.344 9.683 9.684v11.36l-19.6 17.787-20.63-20.63c-3.124-3.124-8.189-3.124-11.313 0s-3.124 8.189 0 11.313l26.019 26.019c1.558 1.558 3.606 2.343 5.658 2.343 1.922 0 3.847-.689 5.375-2.076l14.491-13.151v20.625c0 5.339-4.344 9.684-9.683 9.684h-53.591c-5.339 0-9.684-4.344-9.684-9.684zm-241.315-76.898c-57.177 0-103.693 46.517-103.693 103.693s46.517 103.693 103.693 103.693 103.693-46.517 103.693-103.693-46.516-103.693-103.693-103.693zm0 191.386c-48.354 0-87.693-39.339-87.693-87.693s39.339-87.693 87.693-87.693 87.693 39.339 87.693 87.693-39.339 87.693-87.693 87.693zm31.101-69.737c-1.482 2.566-4.171 4.001-6.936 4.001-1.357 0-2.733-.346-3.993-1.073l-24.173-13.956c-2.475-1.429-4-4.07-4-6.928v-36.205c0-4.418 3.582-8 8-8s8 3.582 8 8v31.586l20.173 11.646c3.827 2.209 5.138 7.102 2.929 10.929zm-39.101-85.887v-8.259c0-4.418 3.582-8 8-8s8 3.582 8 8v8.259c0 4.418-3.582 8-8 8s-8-3.582-8-8zm50.378 25.553c-3.124-3.124-3.124-8.189 0-11.313l5.84-5.84c3.124-3.124 8.189-3.124 11.313 0s3.124 8.189 0 11.313l-5.84 5.84c-1.562 1.562-3.609 2.343-5.657 2.343s-4.094-.781-5.656-2.343zm17.154 90.596c3.124 3.125 3.124 8.19 0 11.314-1.562 1.562-3.609 2.343-5.657 2.343s-4.095-.781-5.657-2.343l-5.84-5.84c-3.124-3.125-3.124-8.19 0-11.314 3.125-3.123 8.189-3.123 11.314 0zm-101.91-5.841c3.124 3.124 3.125 8.189 0 11.314l-5.84 5.84c-1.562 1.562-3.61 2.343-5.657 2.343s-4.094-.781-5.657-2.343c-3.124-3.124-3.125-8.189 0-11.314l5.84-5.84c3.124-3.124 8.189-3.124 11.314 0zm.001-96.068c3.124 3.125 3.124 8.19 0 11.314-1.562 1.562-3.609 2.343-5.657 2.343s-4.095-.781-5.657-2.343l-5.839-5.84c-3.124-3.125-3.124-8.19 0-11.314 3.125-3.123 8.189-3.123 11.314 0zm102.308 53.691c0-4.418 3.582-8 8-8h8.259c4.418 0 8 3.582 8 8s-3.582 8-8 8h-8.259c-4.418 0-8-3.582-8-8zm-51.931 67.931v8.259c0 4.418-3.582 8-8 8s-8-3.582-8-8v-8.259c0-4.418 3.582-8 8-8s8 3.581 8 8zm-67.931-67.931c0 4.418-3.582 8-8 8h-8.259c-4.418 0-8-3.582-8-8s3.582-8 8-8h8.259c4.419 0 8 3.582 8 8z"/></svg>