<svg height="512" viewBox="0 0 60 60" width="512" xmlns="http://www.w3.org/2000/svg"><g id="005---Surfing"><path id="Shape" d="m6 59c0 .5522847.44771525 1 1 1h46c.5522847 0 1-.4477153 1-1s-.4477153-1-1-1h-13.53c3.288-2.925 6.964-7.769 11.447-19.729 3.8791461-9.9929805 3.9400242-21.0649668.171-31.1-.2076093-.48513308-.6053613-.86370363-1.1001554-1.04710076s-1.0431966-.15552199-1.5168446.07710076c-7.279283 3.8953446-13.2729375 9.8177908-17.255 17.05-1.4197352-8.3922828-5.1459592-16.22420885-10.762-22.62-.8034178-.80206603-2.1045822-.80206603-2.908 0-5.7268195 6.53005322-9.48724369 14.5484315-10.846 23.127-.36754011 2.2888428-.58766006 4.5989333-.659 6.916-.009.444-.041.873-.041 1.326 0 15.368 2.346 21.389 4.88 25.6.0844968.1381233.1762936.2716459.275.4h-4.155c-.55228475 0-1 .4477153-1 1zm43.044-21.431c-4.862 12.972-8.787 17.312-11.982 19.846-.97.763-1.662.585-5.711.585l18.476-48.5c2.9557166 9.1706916 2.6793651 19.0773443-.783 28.069zm-1.066-28.832-18.767 49.263h-2.366c.0987064-.1283541.1905032-.2618767.275-.4 2.534-4.211 4.88-10.232 4.88-25.6 0-1.279-.134-3.742-.307-5.355 3.540352-7.4468146 9.2070016-13.6782153 16.285-17.908zm-39.378 15.828 10.4-7.337 10.4 7.337c.2 1.25.357 2.536.456 3.881l-9.7-6.85c-.693897-.4934074-1.624103-.4934074-2.318 0l-9.7 6.853c.1-1.349.262-2.634.462-3.884zm-.562 6.4 10.962-7.738 10.964 7.741c.065 3.087-.03 5.975-.191 8.412l-9.612-6.78c-.693897-.4934074-1.624103-.4934074-2.318 0l-9.619 6.78c-.16-2.434-.257-5.294-.191-8.411zm.371 10.735 10.591-7.473 10.591 7.473c-.111 1.178-.246 2.261-.395 3.274l-9.035-6.374c-.693897-.4934074-1.624103-.4934074-2.318 0l-9.043 6.371c-.145-1.013-.28-2.096-.391-3.271zm10.591-39.7c4.9373172 5.62068631 8.3400949 12.4207305 9.879 19.742l-8.718-6.142c-.693681-.4929335-1.623319-.4929335-2.317 0l-8.72 6.151c1.5390301-7.3233051 4.9405462-14.1259928 9.876-19.751zm-6.4 54.574c-1.7083083-2.9024919-2.86763261-6.0947015-3.42-9.417l9.82-6.93 9.823 6.931c-.5523674 3.3222985-1.7116917 6.5145081-3.42 9.417-.5447548.8872026-1.5119034 1.4270328-2.553 1.425h-7.7c-1.0421638.0030794-2.010688-.5368842-2.556-1.425z"/><path id="Shape" d="m1 60h2c.55228475 0 1-.4477153 1-1s-.44771525-1-1-1h-2c-.55228475 0-1 .4477153-1 1s.44771525 1 1 1z"/><path id="Shape" d="m59 58h-2c-.5522847 0-1 .4477153-1 1s.4477153 1 1 1h2c.5522847 0 1-.4477153 1-1s-.4477153-1-1-1z"/></g></svg>