<svg id="Layer_1" enable-background="new 0 0 512.5 512.5" height="512" viewBox="0 0 512.5 512.5" width="512" xmlns="http://www.w3.org/2000/svg"><g><path d="m505 224.687c-4.143 0-7.5 3.358-7.5 7.5v48.126c0 9.386 15 9.813 15 0v-48.126c0-4.142-3.357-7.5-7.5-7.5z"/><path d="m473.938 175.765c-4.143 0-7.5 3.358-7.5 7.5v145.971c0 9.386 15 9.813 15 0v-145.971c0-4.142-3.358-7.5-7.5-7.5z"/><path d="m442.875 192.098c-4.143 0-7.5 3.358-7.5 7.5v113.304c0 9.386 15 9.813 15 0v-113.304c0-4.142-3.357-7.5-7.5-7.5z"/><path d="m411.813 141.742c-4.143 0-7.5 3.358-7.5 7.5v214.017c0 9.386 15 9.813 15 0v-214.017c0-4.142-3.358-7.5-7.5-7.5z"/><path d="m7.5 224.687c-4.143 0-7.5 3.358-7.5 7.5v48.126c0 9.386 15 9.813 15 0v-48.126c0-4.142-3.357-7.5-7.5-7.5z"/><path d="m38.563 175.765c-4.143 0-7.5 3.358-7.5 7.5v145.971c0 9.386 15 9.813 15 0v-145.971c0-4.142-3.358-7.5-7.5-7.5z"/><path d="m69.625 192.098c-4.143 0-7.5 3.358-7.5 7.5v113.304c0 9.386 15 9.813 15 0v-113.304c0-4.142-3.357-7.5-7.5-7.5z"/><path d="m100.688 141.742c-4.143 0-7.5 3.358-7.5 7.5v214.017c0 9.386 15 9.813 15 0v-214.017c0-4.142-3.358-7.5-7.5-7.5z"/><path d="m388.034 201.357c.136-.565.216-1.152.216-1.759v-80.713c0-9.386-15-9.813-15 0v55.698c-4.796-6.836-10.171-13.238-16.063-19.124v-102.209c0-9.386-15-9.813-15 0v89.173c-5.099-3.848-10.465-7.358-16.063-10.505v-58.168c0-9.386-15-9.813-15 0v50.856c-5.207-2.169-10.567-4.04-16.063-5.586v-87.77c0-9.386-15-9.813-15 0v84.425c-5.425-.906-10.95-1.512-16.563-1.785v-106.14c0-9.386-15-9.813-15 0v106.195c-5.441.303-10.8.914-16.063 1.813v-84.508c0-9.386-15-9.813-15 0v87.908c-5.496 1.568-10.857 3.461-16.063 5.653v-51.061c0-9.386-15-9.813-15 0v58.449c-5.601 3.179-10.965 6.726-16.063 10.608v-89.557c0-9.386-15-9.813-15 0v102.719c-5.9 5.953-11.277 12.424-16.063 19.335v-56.419c0-9.386-15-9.813-15 0v82.865c0 .384.038.758.094 1.127-6.686 16.494-10.378 34.509-10.378 53.373 0 18.421 3.464 36.313 10.284 53.229v84.136c0 9.386 15 9.813 15 0v-82.616c0-18.342-10.284-25.749-10.284-54.749 0-70.322 57.212-127.534 127.534-127.534s127.534 57.211 127.534 127.534-57.208 127.534-127.53 127.534c-32.756 0-63.89-12.396-87.665-34.906-4.717-4.467-13.522-1.093-13.522 5.446v104.926c0 9.386 15 9.813 15 0v-89.473c5.134 3.907 10.499 7.445 16.063 10.596v58.378c0 9.386 15 9.813 15 0v-51.016c5.232 2.194 10.595 4.071 16.063 5.624v87.892c0 9.386 15 9.813 15 0v-84.494c5.289.899 10.651 1.497 16.063 1.798v106.195c0 9.386 15 9.813 15 0v-106.14c5.612-.273 11.137-.879 16.563-1.785v84.425c0 9.386 15 9.813 15 0v-87.77c5.495-1.546 10.856-3.417 16.063-5.586v50.856c0 9.386 15 9.813 15 0v-58.169c5.597-3.147 10.964-6.657 16.063-10.505v89.173c0 9.386 15 9.813 15 0v-102.209c5.892-5.886 11.266-12.288 16.063-19.124v55.698c0 9.386 15 9.813 15 0v-80.713c0-.607-.08-1.194-.216-1.759 7.081-16.904 11-35.449 11-54.893s-3.923-37.988-11.004-54.892z"/><path d="m283.834 197.653c8.839-3.156 4.196-17.427-5.045-14.126l-53.788 19.21c-2.957 1.055-4.978 3.939-4.978 7.063v71.787c-3.789-1.957-8.082-3.069-12.633-3.069-15.236 0-27.633 12.396-27.633 27.633s12.396 27.633 27.633 27.633 27.633-12.396 27.633-27.633v-65.18l65.531-23.404v35.26c-3.789-1.957-8.082-3.069-12.633-3.069-15.236 0-27.633 12.396-27.633 27.633s12.396 27.633 27.633 27.633 27.633-12.396 27.633-27.633v-96.35c0-9.386-15-9.813-15 0v20.6l-65.531 23.404v-9.957zm4.088 92.369c-6.966 0-12.633-5.667-12.633-12.633s5.667-12.633 12.633-12.633 12.633 5.667 12.633 12.633-5.667 12.633-12.633 12.633zm-80.531 28.762c-6.966 0-12.633-5.667-12.633-12.633s5.667-12.633 12.633-12.633 12.633 5.667 12.633 12.633-5.668 12.633-12.633 12.633z"/></g></svg>